<?xml version="1.0" encoding="UTF-8"?><svg id="a" xmlns="http://www.w3.org/2000/svg" width="16" height="16" viewBox="0 0 16 16"><defs><style>.b{fill:#fff;}</style></defs><path class="b" d="M8,.5C3.86.5.5,3.86.5,8s3.36,7.5,7.5,7.5,7.5-3.36,7.5-7.5S12.14.5,8,.5ZM8,14.62c-3.65,0-6.62-2.97-6.62-6.62S4.35,1.38,8,1.38s6.62,2.97,6.62,6.62-2.97,6.62-6.62,6.62Z"/><circle class="b" cx="8" cy="4.35" r=".97"/><path class="b" d="M9.46,11.21h-.54v-4.43c0-.24-.2-.44-.44-.44h-1.95c-.24,0-.44.2-.44.44s.2.44.44.44h1.51v3.99h-1.51c-.24,0-.44.2-.44.44s.2.44.44.44h2.92c.24,0,.44-.2.44-.44s-.2-.44-.44-.44Z"/></svg>
