<?xml version="1.0" encoding="UTF-8"?><svg id="a" xmlns="http://www.w3.org/2000/svg" height="16" width="16" viewBox="0 0 16 16"><defs><style>.b{fill:#fff;}</style></defs><path class="b" d="M2,14.95h9c.65,0,1.2-.44,1.38-1.03.64-.07,1.26-.31,1.77-.72.72-.57,1.17-1.4,1.27-2.32.02-.18.03-.35.02-.52,0-.25-.21-.42-.47-.43-.25,0-.44.22-.43.47,0,.13,0,.26-.01.39-.08.68-.41,1.29-.94,1.71-.49.39-1.1.58-1.73.54-.09,0-.18-.01-.27-.03-.08-.01-.16-.03-.23-.05-.09-.02-.18-.05-.26-.08-.06-.02-.13-.05-.19-.08-.09-.04-.18-.09-.26-.14-.05-.03-.1-.07-.15-.1-.08-.06-.16-.13-.24-.2-.05-.04-.09-.09-.13-.14-.07-.07-.13-.15-.19-.23-.04-.05-.07-.11-.11-.16-.05-.08-.1-.17-.14-.26-.03-.06-.05-.12-.07-.18-.03-.09-.07-.19-.09-.29-.02-.07-.03-.13-.04-.2-.01-.1-.03-.19-.03-.29,0-.08,0-.15,0-.23,0-.09.01-.18.03-.27.01-.08.03-.16.05-.24.02-.09.05-.17.08-.26.02-.07.05-.13.08-.19.04-.09.09-.18.14-.26.03-.05.07-.1.11-.15.06-.08.13-.16.19-.24.04-.05.09-.09.14-.13.07-.07.15-.13.23-.19.05-.04.11-.08.17-.11.08-.05.17-.1.25-.14.06-.03.13-.05.19-.08.09-.03.18-.06.27-.08.07-.02.15-.03.22-.04.09-.01.18-.02.27-.03.13,0,.26,0,.39,0,.22.02.44.08.65.16.23.09.49-.02.58-.26s-.03-.49-.26-.58c-.28-.11-.57-.18-.87-.21,0,0,0,0,0,0-.18-.59-.73-1.02-1.38-1.02h-.55v-1.05c0-1.06-.41-2.05-1.16-2.79-.74-.75-1.73-1.16-2.79-1.16-2.18,0-3.95,1.77-3.95,3.95v1.05h-.55c-.8,0-1.45.65-1.45,1.45v6c0,.8.65,1.45,1.45,1.45ZM3.45,5c0-1.68,1.37-3.05,3.05-3.05.82,0,1.58.32,2.15.9.58.57.9,1.33.9,2.15v1.05H3.45v-1.05ZM1.45,7.5c0-.3.25-.55.55-.55h9c.15,0,.28.06.38.16-.05,0-.1.03-.16.04-.11.02-.22.05-.32.09-.1.03-.19.07-.28.11-.1.04-.2.09-.3.14-.1.05-.19.12-.28.18-.07.05-.14.08-.2.13-.02.01-.03.03-.04.04-.1.08-.18.17-.27.26-.12.13-.24.26-.34.41-.06.09-.13.18-.19.27-.05.09-.09.18-.13.27-.05.11-.1.21-.14.32-.03.08-.05.17-.07.26-.03.12-.06.25-.08.38,0,.04-.02.07-.02.11,0,.06,0,.11,0,.17,0,.07-.02.14-.02.21,0,.05.01.1.01.15,0,.1.01.2.03.31.01.11.03.22.06.33.02.1.05.2.08.3.03.1.08.2.12.3.04.1.08.19.14.28.05.1.12.19.18.28.05.07.08.14.13.2.01.02.03.03.04.04.07.09.16.16.24.24.14.14.3.27.46.38.08.05.15.11.24.16.09.05.19.09.28.13.1.05.2.1.31.13.09.03.18.05.27.07.08.02.16.05.24.07-.1.1-.23.16-.38.16H2c-.3,0-.55-.25-.55-.55v-6Z"/><path class="b" d="M11.32,10.18c-.18-.18-.46-.18-.64,0s-.18.46,0,.64l1,1s.01,0,.02.01c0,0,0,.01.01.02,0,0,.02,0,.02,0,.08.06.17.1.26.1.06,0,.12-.01.18-.04.02,0,.03-.02.05-.03.03-.02.06-.03.09-.06,0,0,0-.01.01-.02,0,0,.01,0,.01-.01l2.5-3c.16-.19.13-.47-.06-.63-.19-.16-.48-.13-.63.06l-2.18,2.62-.65-.65Z"/></svg>