<?xml version="1.0" encoding="UTF-8"?><svg id="a" xmlns="http://www.w3.org/2000/svg" width="16" height="16" viewBox="0 0 16 16"><defs><style>.b{fill:#fff;}</style></defs><path class="b" d="M12.72,1.16H3.28c-.55,0-1.01.45-1.01,1.01v11.11c0,.42.17.82.46,1.1.29.3.68.46,1.11.46h9.44c.25,0,.45-.2.45-.45V2.17c0-.55-.45-1.01-1.01-1.01ZM12.83,2.17v9.55h-7.99V2.06h7.88c.06,0,.11.05.11.1ZM3.17,2.17c0-.06.05-.1.11-.1h.66v9.66h-.1c-.11,0-.22.01-.33.04-.03,0-.06.02-.1.03-.07.02-.14.04-.21.07,0,0-.02,0-.02,0V2.17ZM12.83,13.94H3.83c-.18,0-.34-.07-.47-.2-.12-.12-.19-.28-.19-.46,0-.36.3-.66.66-.66h8.99v1.32Z"/><path class="b" d="M6.06,7.06h5.56c.25,0,.45-.2.45-.45v-2.78c0-.25-.2-.45-.45-.45h-5.56c-.25,0-.45.2-.45.45v2.78c0,.25.2.45.45.45ZM6.51,4.28h4.66v1.88h-4.66v-1.88Z"/></svg>
