<?xml version="1.0" encoding="UTF-8"?><svg id="a" xmlns="http://www.w3.org/2000/svg" width="16" height="16" viewBox="0 0 16 16"><defs><style>.b{fill:#fff;}</style></defs><path class="b" d="M5.77,8.8c.11-.15.26-.22.47-.22.18,0,.32.04.4.12.09.08.15.23.17.43v.09h.76v-.11c-.05-.37-.19-.67-.42-.87-.23-.21-.54-.31-.91-.31-.28,0-.53.07-.74.2-.21.13-.38.33-.5.57-.11.24-.17.52-.17.84v.3c0,.31.06.58.17.81.11.24.28.42.48.55.21.13.45.2.72.2.39,0,.7-.1.94-.31.24-.21.38-.5.41-.86v-.11s-.74,0-.74,0v.09c-.04.2-.1.34-.19.43-.09.08-.23.12-.42.12-.2,0-.35-.08-.46-.23-.11-.16-.17-.41-.17-.73v-.28c0-.32.06-.56.18-.71Z"/><path class="b" d="M9.79,9.6c-.16-.1-.36-.18-.62-.26-.23-.07-.4-.14-.5-.21-.08-.06-.12-.13-.12-.21,0-.11.04-.19.11-.24.08-.06.2-.09.36-.09.17,0,.29.04.38.12.08.07.12.18.12.32v.1h.75v-.1c0-.2-.05-.39-.16-.56-.11-.17-.26-.29-.45-.38-.19-.09-.4-.13-.64-.13-.35,0-.65.09-.88.27-.23.19-.35.42-.35.71,0,.33.16.6.48.8.16.1.37.19.64.27.3.09.44.17.5.21.07.06.11.13.11.24,0,.1-.03.17-.11.23-.08.06-.2.1-.37.1-.2,0-.35-.04-.45-.13-.1-.08-.14-.19-.14-.34v-.1h-.75v.1c0,.22.06.42.18.58.12.16.28.29.49.39.21.09.43.14.68.14.37,0,.67-.09.89-.26.23-.18.34-.42.34-.71,0-.18-.04-.34-.12-.48-.08-.14-.2-.26-.36-.36Z"/><path class="b" d="M11.72,7.93c-.36,0-.65.09-.88.27-.23.19-.35.42-.35.71,0,.33.16.6.48.8.16.1.37.19.64.27.3.09.44.17.5.21.07.06.11.14.11.24,0,.1-.04.17-.11.23-.08.06-.2.1-.37.1-.2,0-.35-.04-.45-.13-.1-.08-.14-.19-.14-.34v-.1h-.75v.1c0,.22.06.42.18.58.12.16.28.29.49.39.21.09.43.14.68.14.37,0,.67-.09.89-.26.23-.18.34-.42.34-.71,0-.18-.04-.34-.12-.48-.08-.14-.2-.26-.36-.36-.16-.1-.36-.18-.62-.26-.24-.07-.4-.14-.5-.21-.08-.06-.12-.13-.12-.21,0-.11.04-.19.11-.24.08-.06.2-.1.36-.1.17,0,.29.04.38.12.08.08.12.18.12.32v.1h.75v-.1c0-.2-.06-.39-.17-.56s-.26-.3-.45-.38c-.18-.09-.4-.13-.63-.13Z"/><path class="b" d="M14.18,6.16h-1.22v-1.77s0-.04-.01-.06c0-.03,0-.06-.02-.09-.01-.03-.03-.06-.05-.08-.01-.02-.02-.04-.03-.05l-2.81-3.33s-.01,0-.01-.01c-.02-.02-.05-.04-.07-.06-.02-.02-.04-.03-.07-.04-.02-.01-.05-.02-.08-.02-.03,0-.06-.02-.09-.02,0,0-.01,0-.02,0H1.82c-.25,0-.45.2-.45.45v13.89c0,.25.2.45.45.45h10.69c.25,0,.45-.2.45-.45v-1.77h1.22c.25,0,.45-.2.45-.45v-6.11c0-.25-.2-.45-.45-.45ZM10.15,2.29l1.4,1.65h-1.4v-1.65ZM12.06,14.49H2.27V1.51h6.98v2.88c0,.25.2.45.45.45h2.36v1.32H3.63c-.25,0-.45.2-.45.45v6.11c0,.25.2.45.45.45h8.44v1.32ZM13.73,12.27H4.1v-5.21h9.63v5.21Z"/></svg>
