<?xml version="1.0" encoding="UTF-8"?><svg id="a" xmlns="http://www.w3.org/2000/svg" width="16" height="16" viewBox="0 0 16 16"><defs><style>.b{fill:#fff;}</style></defs><path class="b" d="M14.39,1.16H1.61c-.25,0-.45.2-.45.45v3.33c0,.25.2.45.45.45h12.78c.25,0,.45-.2.45-.45V1.61c0-.25-.2-.45-.45-.45ZM13.94,4.49H2.06v-2.43h11.88v2.43Z"/><path class="b" d="M3.28,3.73h8.89c.25,0,.45-.2.45-.45s-.2-.45-.45-.45H3.28c-.25,0-.45.2-.45.45s.2.45.45.45Z"/><path class="b" d="M3.28,8.38c-.25,0-.45.2-.45.45s.2.45.45.45h5c.25,0,.45-.2.45-.45s-.2-.45-.45-.45H3.28Z"/><path class="b" d="M14.39,6.72H1.61c-.25,0-.45.2-.45.45v3.33c0,.25.2.45.45.45h6.67c.25,0,.45-.2.45-.45s-.2-.45-.45-.45H2.06v-2.43h11.88v1.77c0,.25.2.45.45.45s.45-.2.45-.45v-2.22c0-.25-.2-.45-.45-.45Z"/><path class="b" d="M10.79,9.05c-.13-.11-.32-.14-.48-.07-.16.07-.26.23-.26.41v5c0,.21.14.39.35.44.03,0,.07.01.1.01.17,0,.33-.09.4-.25l.96-1.91,2.44.49c.21.04.4-.06.49-.24.09-.18.04-.41-.11-.54l-3.89-3.33ZM11.7,11.73c-.2-.04-.4.06-.49.24l-.26.52v-2.12l1.84,1.58-1.09-.22Z"/></svg>
