<?xml version="1.0" encoding="UTF-8"?><svg id="a" xmlns="http://www.w3.org/2000/svg" width="16" height="16" viewBox="0 0 16 16"><defs><style>.b{fill:#fff;}</style></defs><path class="b" d="M3.83,3.17h1.67c.25,0,.45-.2.45-.45s-.2-.45-.45-.45h-1.67c-.25,0-.45.2-.45.45s.2.45.45.45Z"/><path class="b" d="M7.17,3.17h5c.25,0,.45-.2.45-.45s-.2-.45-.45-.45h-5c-.25,0-.45.2-.45.45s.2.45.45.45Z"/><path class="b" d="M12.17,12.83h-1.67c-.25,0-.45.2-.45.45s.2.45.45.45h1.67c.25,0,.45-.2.45-.45s-.2-.45-.45-.45Z"/><path class="b" d="M8.83,12.83H3.83c-.25,0-.45.2-.45.45s.2.45.45.45h5c.25,0,.45-.2.45-.45s-.2-.45-.45-.45Z"/><path class="b" d="M13.83.61H2.17c-.25,0-.45.2-.45.45v13.89c0,.25.2.45.45.45h11.67c.25,0,.45-.2.45-.45V1.06c0-.25-.2-.45-.45-.45ZM2.62,4.84h10.77v6.32H2.62v-6.32ZM13.38,1.51v2.43H2.62V1.51h10.77ZM2.62,14.49v-2.43h10.77v2.43H2.62Z"/></svg>
