<?xml version="1.0" encoding="UTF-8"?><svg id="a" xmlns="http://www.w3.org/2000/svg" width="16" height="16" viewBox="0 0 16 16"><defs><style>.b{fill:#fff;}</style></defs><path class="b" d="M14.86,10.87c.56-1.3.49-2.79-.22-4.04-1.09-1.92-3.35-2.72-5.38-2.01-.39-.76-.98-1.38-1.75-1.82-2.16-1.23-4.92-.48-6.16,1.68-.71,1.24-.78,2.73-.22,4.04l-.8,1.87c-.07.17-.04.36.08.49.12.13.31.18.48.12l1.73-.62c.13.1.27.18.42.27.69.39,1.46.59,2.23.59.49,0,.98-.11,1.45-.27.02.05.04.09.07.14.6,1.05,1.57,1.8,2.73,2.12.4.11.8.16,1.2.16.77,0,1.54-.2,2.23-.59.14-.08.28-.17.41-.27l1.73.62c.17.06.36.02.48-.12.12-.13.16-.32.08-.49l-.81-1.87ZM3.49,10.06c-.18-.1-.35-.22-.5-.34-.08-.07-.18-.1-.28-.1-.05,0-.1,0-.15.03l-.99.35.47-1.1c.05-.12.05-.26,0-.37-.53-1.08-.49-2.35.1-3.39.99-1.73,3.2-2.33,4.93-1.35.59.34,1.06.81,1.38,1.39-.23.13-.44.28-.64.45-.02.02-.04.05-.07.07-.17.15-.34.32-.48.49-.06.07-.1.15-.16.22-.1.14-.2.27-.29.42-.05.09-.09.18-.14.28-.07.14-.13.28-.19.42-.04.1-.06.21-.09.31-.04.14-.08.28-.11.43-.22-.11-.43-.24-.63-.41.36-.49.6-1.03.72-1.6.08,0,.16,0,.23,0,.13,0,.27,0,.41-.02l.08-.02v-.68h-1.56v-.52h-.8v.53h-1.55v.72h.72c.12.59.37,1.12.76,1.61-.42.37-.9.58-1.37.74l-.11.04.05.1c.03.06.04.12.06.18.02.1.05.2.12.3l.04.05.07-.02c.61-.17,1.15-.45,1.64-.87.34.27.69.46,1.04.61,0,.01,0,.02,0,.04,0,.12,0,.23.01.35,0,.15.03.29.05.43.02.12.04.23.07.35.02.07.02.13.04.2-.96.31-2.02.21-2.9-.3ZM5.65,6.27c-.09.38-.25.73-.48,1.06-.23-.3-.4-.64-.51-1.06h.99ZM13.44,11.8c-.15-.05-.31-.02-.44.07-.15.12-.32.24-.5.34-1.73.99-3.94.38-4.93-1.35-.08-.13-.14-.27-.2-.41-.7-1.67-.03-3.61,1.56-4.52.09-.05.18-.1.28-.14.49-.22,1-.33,1.51-.33,1.26,0,2.46.66,3.13,1.83.59,1.04.63,2.31.1,3.39-.06.12-.06.26,0,.38l.48,1.1-.99-.35Z"/><path class="b" d="M10.35,7.17l-1.35,3.58h.83l.27-.79h1.17l.28.79h.83l-1.36-3.58h-.67ZM10.33,9.29l.35-1,.35,1h-.7Z"/></svg>
