<?xml version="1.0" encoding="UTF-8"?><svg id="a" xmlns="http://www.w3.org/2000/svg" width="16" height="16" viewBox="0 0 16 16"><defs><style>.b{fill:#fff;}</style></defs><circle class="b" cx="6.14" cy="8" r=".59"/><circle class="b" cx="8" cy="8" r=".59"/><path class="b" d="M10.45,8c0-.33-.27-.59-.59-.59s-.59.27-.59.59.27.59.59.59.59-.27.59-.59Z"/><path class="b" d="M13.01,7.55s0,0-.01,0h0c-.31.01-.74-.04-.94-.27-.19-.21-.17-.56-.1-1.11.07-.6.15-1.28-.33-1.81-.34-.39-.88-.57-1.63-.57v.9c.32-.02.75.04.95.27.19.22.17.56.1,1.11-.07.6-.15,1.28.33,1.81.04.04.09.08.14.12-.05.04-.1.07-.14.12-.48.53-.4,1.21-.33,1.81.06.54.09.89-.1,1.11-.2.23-.63.27-.94.27v.9h.04c.71,0,1.24-.19,1.57-.57.48-.53.4-1.21.33-1.81-.06-.54-.09-.89.1-1.11.2-.23.63-.27.94-.27h.01v-.45s0-.45,0-.45Z"/><path class="b" d="M5.04,11.03c-.19-.21-.17-.56-.1-1.11.07-.6.15-1.28-.33-1.81-.04-.04-.09-.08-.14-.12.05-.04.1-.07.14-.12.48-.53.4-1.21.33-1.81-.06-.55-.09-.89.1-1.11.2-.23.63-.27.94-.27v-.9c-.73,0-1.27.18-1.61.57-.48.53-.4,1.21-.33,1.81.06.54.09.89-.1,1.11-.2.23-.62.27-.94.27h0s0,0-.01,0v.45s0,.45,0,.45h.01c.32,0,.74.04.94.27.19.22.17.56.1,1.11-.07.6-.15,1.28.33,1.81.34.38.87.57,1.57.57h.05v-.9c-.32,0-.75-.04-.95-.27Z"/><path class="b" d="M8,.3C3.75.3.3,3.75.3,8s3.45,7.7,7.7,7.7,7.7-3.45,7.7-7.7S12.25.3,8,.3ZM8,14.8c-3.75,0-6.8-3.05-6.8-6.8S4.25,1.2,8,1.2s6.8,3.05,6.8,6.8-3.05,6.8-6.8,6.8Z"/></svg>
