<?xml version="1.0" encoding="UTF-8"?><svg id="a" xmlns="http://www.w3.org/2000/svg" width="16" height="16" viewBox="0 0 16 16"><defs><style>.b{fill:#fff;}</style></defs><path class="b" d="M2,15.28h10.67c.25,0,.45-.2.45-.45s-.2-.45-.45-.45H2.45V1.62h10.22c.25,0,.45-.2.45-.45s-.2-.45-.45-.45H2c-.25,0-.45.2-.45.45v13.67c0,.25.2.45.45.45Z"/><path class="b" d="M9.14,3.28h-3.75c-.25,0-.45.2-.45.45s.2.45.45.45h3.75c.25,0,.45-.2.45-.45s-.2-.45-.45-.45Z"/><path class="b" d="M4.15,3.41c-.13-.13-.32-.17-.49-.1-.05.03-.1.06-.14.1-.05.04-.08.09-.1.15-.03.05-.04.11-.04.17,0,.12.05.23.14.32.08.08.19.13.31.13s.24-.05.32-.13c.09-.09.13-.2.13-.32s-.05-.23-.13-.32Z"/><path class="b" d="M9.14,6.17h-3.75c-.25,0-.45.2-.45.45s.2.45.45.45h3.75c.25,0,.45-.2.45-.45s-.2-.45-.45-.45Z"/><path class="b" d="M4.15,6.3s-.09-.07-.15-.1c-.16-.07-.36-.03-.48.1-.09.08-.14.2-.14.32,0,.06,0,.12.04.17.02.06.05.11.1.15.08.08.19.13.31.13s.24-.05.32-.13c.04-.04.08-.09.1-.15.02-.05.03-.11.03-.17,0-.12-.05-.24-.13-.32Z"/><path class="b" d="M9.14,9.06h-3.75c-.25,0-.45.2-.45.45s.2.45.45.45h3.75c.25,0,.45-.2.45-.45s-.2-.45-.45-.45Z"/><path class="b" d="M4.15,9.19s-.09-.08-.15-.1c-.16-.07-.36-.03-.48.1-.09.08-.14.2-.14.32,0,.06,0,.12.04.17.02.05.05.1.1.15.08.08.19.13.31.13s.24-.05.32-.13c.04-.05.08-.1.1-.15.02-.05.03-.11.03-.17,0-.12-.05-.24-.13-.32Z"/><path class="b" d="M9.14,11.95h-3.75c-.25,0-.45.2-.45.45s.2.45.45.45h3.75c.25,0,.45-.2.45-.45s-.2-.45-.45-.45Z"/><path class="b" d="M3.66,11.98c-.05.02-.1.06-.14.1-.09.08-.14.2-.14.32,0,.06,0,.11.04.17.02.05.05.1.1.14.08.09.19.14.31.14s.24-.05.32-.14c.04-.04.08-.09.1-.14.02-.06.03-.11.03-.17,0-.12-.05-.24-.13-.32-.13-.13-.33-.17-.49-.1Z"/><path class="b" d="M12.73,8.77c-.25,0-.45.2-.45.45v2.03l-.49-.54c-.17-.18-.45-.2-.64-.03-.18.17-.2.45-.03.64l1.25,1.38c.09.1.21.15.33.15,0,0,.01,0,.02,0,0,0,.01,0,.02,0,.12,0,.24-.05.33-.15l1.25-1.38c.17-.18.15-.47-.03-.64-.18-.17-.47-.15-.64.03l-.49.54v-2.03c0-.25-.2-.45-.45-.45Z"/><path class="b" d="M12.64,3.29c-.13,0-.26.04-.35.14l-1.25,1.38c-.17.18-.15.47.03.64.09.08.19.12.3.12.12,0,.24-.05.33-.15l.49-.54v2.03c0,.25.2.45.45.45s.45-.2.45-.45v-2.03l.49.54c.09.1.21.15.33.15.11,0,.22-.04.3-.12.18-.17.2-.45.03-.64l-1.25-1.38c-.09-.1-.23-.15-.36-.14Z"/></svg>
