<?xml version="1.0" encoding="UTF-8"?><svg id="a" xmlns="http://www.w3.org/2000/svg" width="16" height="16" viewBox="0 0 16 16"><defs><style>.b{fill:#fff;}</style></defs><path class="b" d="M13.1,7.34c-.08-.13-.23-.21-.38-.21H3.28c-.15,0-.29.08-.38.21l-1.67,2.58c-.09.14-.1.31-.02.46.08.15.23.24.4.24h1.22v4.19c0,.25.2.45.45.45h9.44c.25,0,.45-.2.45-.45v-4.19h1.22c.17,0,.32-.09.4-.24.08-.14.07-.32-.02-.46l-1.67-2.58ZM3.52,8.03h3.37l-1.08,1.68h-3.37l1.08-1.68ZM3.73,10.61h2.33c.15,0,.29-.08.38-.21l1.12-1.73v5.67h-3.82v-3.74ZM12.27,14.36h-3.82v-5.68l1.12,1.73c.08.13.23.21.38.21h2.33v3.74ZM12.72,9.71h-2.53l-1.08-1.68h3.37l1.08,1.68h-.84Z"/><path class="b" d="M5.5,4.42h1.22v1.77c0,.25.2.45.45.45.02,0,.04,0,.06-.01.02,0,.04.01.06.01h1.41s.05-.01.07-.01c.02,0,.04.01.07.01.25,0,.45-.2.45-.45v-1.77h1.22c.18,0,.34-.1.41-.27.07-.16.04-.35-.08-.48l-2.5-2.78s-.01,0-.02-.01,0-.01-.01-.02c-.02-.02-.04-.02-.06-.03-.03-.02-.05-.04-.08-.05-.03-.01-.05-.01-.08-.02-.03,0-.06-.01-.09-.01-.03,0-.06,0-.08.01-.03,0-.06,0-.08.02-.03.01-.05.03-.08.05-.02.01-.04.02-.06.03,0,0,0,.01-.01.02s-.01,0-.02.01l-2.5,2.78c-.12.13-.15.32-.08.48.07.16.23.27.41.27ZM8,1.87l1.49,1.66h-.66c-.25,0-.45.2-.45.45v1.77h-.77v-1.77c0-.25-.2-.45-.45-.45h-.66l1.49-1.66Z"/></svg>
