<?xml version="1.0" encoding="UTF-8"?><svg id="a" xmlns="http://www.w3.org/2000/svg" width="16" height="16" viewBox="0 0 16 16"><defs><style>.b{fill:#fff;}</style></defs><path class="b" d="M3.83,14.5h4.29s.03,0,.05-.01v.23c0,.19.12.35.29.42.17.07.37.02.5-.12l.73-.81.73.81c.09.1.21.15.34.15.05,0,.11,0,.16-.03.17-.07.29-.23.29-.42v-.25s.07.02.11.02h1.97c.25,0,.45-.2.45-.45V1.83c0-.55-.45-1.01-1.01-1.01H3.28c-.55,0-1.01.45-1.01,1.01v11.11c0,.42.17.82.46,1.1.29.3.68.46,1.11.46ZM3.94,8.84c-.11-.01-.23-.03-.34-.04-.14,0-.29.02-.43.04v-4.36c.15-.04.3-.07.46-.08.11,0,.21.02.31.03v4.4ZM3.17,11.53v-1.75c.14-.04.29-.07.44-.07.11,0,.22.02.33.04v1.64h-.1c-.11,0-.22.01-.33.04-.03,0-.06.02-.1.03-.07.02-.14.04-.21.07,0,0-.02,0-.02,0ZM8.12,13.6H3.83c-.18,0-.34-.07-.47-.2-.12-.12-.19-.28-.19-.46,0-.36.3-.66.66-.66h4.37s-.03.09-.03.13v1.2s-.03-.01-.05-.01ZM10.3,13.54l-.28-.31c-.17-.19-.5-.19-.67,0l-.28.31v-1.13s-.01-.09-.03-.13h1.28s-.03.09-.03.13v1.13ZM12.83,13.6h-1.52s-.08.01-.11.02v-1.21s-.01-.09-.03-.13h1.65v1.32ZM12.83,1.83v9.55h-7.99V1.72h7.88c.06,0,.11.05.11.11ZM3.28,1.72h.66v1.82c-.11-.01-.21-.04-.32-.04-.15,0-.3.02-.45.05v-1.73c0-.06.05-.11.11-.11Z"/><path class="b" d="M6.13,6.03c.06.04.14.07.22.08.08.02.17.02.27.02s.18,0,.27-.02c.08-.02.16-.04.22-.08.06-.04.11-.1.15-.17s.05-.17.05-.29v-1.15h-.45v1.14s0,.07-.03.1c-.02.03-.05.05-.08.06s-.08.02-.13.02-.1,0-.13-.02c-.04-.01-.06-.03-.08-.06-.02-.03-.03-.06-.03-.1v-1.14h-.45v1.15c0,.12.02.22.05.29.04.08.09.13.15.17Z"/><path class="b" d="M8.04,5.5h.12s.06,0,.08.02c.02.02.04.04.04.08v.03s0,.05-.03.07c-.02.02-.04.03-.08.04-.03,0-.08.01-.13.01s-.11,0-.17,0-.12,0-.18,0-.12,0-.17-.01v.35s.08.02.12.03c.04,0,.09.01.13.02.05,0,.09.01.14.01s.1,0,.15,0c.13,0,.24-.01.34-.04.09-.03.17-.08.22-.16s.08-.19.08-.33v-.08c0-.09-.02-.17-.05-.24s-.09-.12-.16-.17-.16-.06-.27-.06h-.15c-.05,0-.09,0-.11-.03-.02-.02-.04-.05-.04-.09v-.02s0-.06.03-.08c.02-.02.04-.03.08-.04.03,0,.07,0,.11,0,.07,0,.15,0,.24,0,.09,0,.17,0,.24.02v-.35s-.09-.02-.15-.03c-.06,0-.12-.02-.18-.03-.06,0-.13-.01-.2-.01-.19,0-.34.04-.44.13-.1.08-.15.21-.15.38v.08c0,.18.05.31.14.39.09.08.23.12.4.12Z"/><path class="b" d="M9.08,6.08s.1.04.15.05c.05,0,.1.01.13.01.08,0,.16,0,.25,0s.17,0,.26-.01c.08,0,.16-.01.23-.02v-.38h-.64s-.04,0-.05-.01c-.02,0-.03-.02-.04-.04s-.01-.04-.01-.07v-.13l.62-.02v-.35l-.62-.02v-.14s0-.06.03-.08c.02-.02.05-.03.09-.03h.62v-.38c-.05,0-.11-.01-.18-.02-.07,0-.15,0-.24-.01s-.2,0-.33,0c-.05,0-.1,0-.15.02-.05.01-.1.04-.14.07-.04.03-.07.07-.1.13-.03.06-.04.12-.04.21v.89c0,.09.02.17.05.22.03.05.07.09.12.12Z"/><path class="b" d="M10.75,5.54h.17l.24.59h.45l-.3-.66s.06-.04.09-.06c.03-.02.05-.06.07-.09.02-.04.04-.08.05-.13.01-.05.02-.11.02-.18,0-.11-.01-.2-.04-.28-.03-.07-.06-.13-.11-.18-.05-.04-.1-.07-.16-.09-.06-.02-.13-.03-.21-.03h-.73v1.71h.45v-.59ZM10.75,4.82h.2s.05,0,.06,0c.02,0,.03.02.05.03.01.01.02.03.03.05,0,.02,0,.05,0,.08s0,.06,0,.09c0,.02-.02.04-.03.06-.01.02-.03.03-.05.03-.02,0-.04.01-.06.01h-.2v-.37Z"/><path class="b" d="M5.43,8.37c.01.1.04.2.08.27s.09.14.16.19c.07.04.15.07.26.07.1,0,.18-.01.26-.04s.14-.06.17-.08l.06.11h.34v-1.01s-.07,0-.12,0c-.04,0-.09,0-.15,0-.04,0-.09,0-.14,0-.05,0-.1,0-.15,0-.05,0-.09,0-.12.01v.35h.24v.22s-.06,0-.1.02-.1,0-.15,0c-.04,0-.07,0-.1-.02-.03-.01-.05-.03-.07-.07s-.03-.08-.04-.14c0-.06-.01-.14-.01-.23,0-.12,0-.22.02-.29.01-.07.04-.12.08-.14s.11-.04.2-.04c.07,0,.14,0,.2,0,.06,0,.12,0,.17.01.05,0,.1,0,.13.02v-.35c-.06-.02-.12-.03-.18-.04-.06-.01-.12-.02-.18-.03-.07,0-.14-.01-.23-.01-.14,0-.25.02-.34.06-.09.04-.15.1-.2.18-.05.08-.08.17-.1.28-.02.11-.03.23-.03.36,0,.12,0,.23.02.33Z"/><path class="b" d="M6.98,7.18v1.15c0,.12.02.22.05.29.04.08.09.13.15.17s.14.07.22.08c.08.02.17.02.27.02s.18,0,.27-.02c.08-.02.16-.04.22-.08.06-.04.11-.1.15-.17s.05-.17.05-.29v-1.15h-.45v1.14s0,.07-.03.1c-.02.03-.05.05-.08.06s-.08.02-.13.02-.1,0-.13-.02c-.04-.01-.06-.03-.08-.06-.02-.03-.03-.06-.03-.1v-1.14h-.45Z"/><rect class="b" x="8.6" y="7.18" width=".45" height="1.71"/><path class="b" d="M10.55,7.43c-.05-.08-.11-.14-.19-.18-.08-.04-.18-.07-.31-.07h-.75v1.71h.75c.14,0,.25-.03.35-.09s.16-.15.2-.28c.05-.12.07-.29.07-.49,0-.12,0-.23-.03-.33-.02-.1-.05-.19-.1-.27ZM10.2,8.3c-.01.07-.04.12-.07.15-.03.03-.08.05-.13.05h-.26v-.91h.26s.06,0,.09.01c.03.01.05.03.07.06s.03.08.04.14c0,.06.01.14.01.24,0,.11,0,.19-.02.26Z"/><path class="b" d="M11.16,7.2c-.05.01-.1.04-.14.07-.04.03-.07.07-.1.13-.03.06-.04.12-.04.21v.89c0,.09.02.17.05.22.03.05.07.09.12.12.05.03.1.04.15.05.05,0,.1.01.13.01.08,0,.16,0,.25,0s.17,0,.26-.01c.08,0,.16-.01.23-.02v-.38h-.64s-.04,0-.05-.01c-.02,0-.03-.02-.04-.04s-.01-.04-.01-.07v-.13l.62-.02v-.35l-.62-.02v-.14s0-.06.03-.08c.02-.02.05-.03.09-.03h.62v-.38c-.05,0-.11-.01-.18-.02-.07,0-.15,0-.24-.01s-.2,0-.33,0c-.05,0-.1,0-.15.02Z"/></svg>
