<svg xmlns="http://www.w3.org/2000/svg" width="16" height="16" viewBox="0 0 16 16">
    <defs><style>.b{fill:#fff;}</style></defs>
    <path class="b" d="M13.5,2h-11C2.2,2,2,2.2,2,2.5v11C2,13.8,2.2,14,2.5,14h11c0.3,0,0.5-0.2,0.5-0.5v-11C14,2.2,13.8,2,13.5,2z M13,13H3V3h10V13z"/>
    <path class="b" d="M10,5H5C4.7,5,4.5,5.2,4.5,5.5S4.7,6,5,6h5c0.3,0,0.5-0.2,0.5-0.5S10.3,5,10,5z"/>
    <path class="b" d="M11,7.5H5c-0.3,0-0.5,0.2-0.5,0.5s0.2,0.5,0.5,0.5h6c0.3,0,0.5-0.2,0.5-0.5S11.3,7.5,11,7.5z"/>
    <path class="b" d="M8,10H5c-0.3,0-0.5,0.2-0.5,0.5S4.7,11,5,11h3c0.3,0,0.5-0.2,0.5-0.5S8.3,10,8,10z"/>
</svg>
