<?xml version="1.0" encoding="UTF-8"?><svg id="a" xmlns="http://www.w3.org/2000/svg" width="16" height="16" viewBox="0 0 16 16"><defs><style>.b{fill:#fff;}</style></defs><path class="b" d="M3.48,9.97c-.62.35-.84,1.13-.49,1.75s1.13.84,1.75.49.84-1.13.49-1.75c-.05-.1-.13-.16-.21-.24,0-.01.02-.02.03-.03l1.75-2.55c.14-.21.09-.49-.12-.63-.01-.01-.03-.01-.05-.02-.01,0-.02-.02-.03-.03-.31-.2-.57-.45-.78-.76-.82-1.21-.5-2.87.71-3.7,1.22-.82,2.87-.5,3.7.71.4.59.54,1.3.41,2-.02.1-.04.2-.07.3-.08.24.06.49.29.56.24.07.49-.06.56-.29.04-.13.08-.26.1-.4.18-.93-.02-1.88-.55-2.67-1.1-1.62-3.32-2.05-4.95-.95-1.62,1.1-2.05,3.32-.95,4.95.2.3.46.55.74.77l-1.51,2.2s-.05.1-.06.15c-.26-.03-.53,0-.77.13Z"/><path class="b" d="M11.39,7.53c-.36.05-.7.16-1.02.31l-1.28-2.34c-.03-.05-.07-.09-.11-.13.14-.22.24-.47.23-.75-.03-.71-.63-1.26-1.34-1.23-.71.03-1.26.63-1.23,1.34.03.71.63,1.26,1.34,1.23.11,0,.21-.05.31-.08,0,.01,0,.03.01.04l1.48,2.72c.08.15.24.23.39.23.07,0,.15-.02.22-.06.02,0,.03-.02.04-.03.01,0,.02,0,.04-.01.31-.19.66-.31,1.03-.35,1.46-.18,2.79.85,2.97,2.31.09.71-.1,1.4-.54,1.96-.44.56-1.06.92-1.77,1.01-.7.09-1.4-.1-1.96-.54-.08-.06-.16-.13-.23-.2-.18-.17-.46-.17-.64,0-.17.18-.17.46,0,.64.1.09.2.18.31.27.63.49,1.39.75,2.18.75.15,0,.3,0,.45-.03.94-.12,1.78-.6,2.37-1.35.58-.75.84-1.69.72-2.63-.25-1.95-2.04-3.33-3.98-3.09Z"/><path class="b" d="M10.37,11.52c.06,0,.11-.01.16-.03.12.23.3.43.55.56.64.31,1.41.05,1.72-.59.31-.64.05-1.41-.59-1.72-.64-.31-1.41-.05-1.72.59-.05.1-.06.2-.08.3-.02,0-.03,0-.04,0h-3.1c-.25.01-.45.22-.45.46,0,.02,0,.04.01.06,0,.01,0,.02,0,.03.01.37-.04.73-.18,1.07-.26.66-.76,1.19-1.41,1.47-.65.29-1.38.3-2.04.04-.66-.26-1.19-.76-1.47-1.41-.29-.65-.3-1.37-.05-2.04.26-.66.76-1.19,1.41-1.47.09-.04.19-.08.29-.11.24-.07.37-.33.3-.56-.07-.24-.33-.37-.56-.3-.13.04-.26.09-.38.14-.87.38-1.54,1.08-1.88,1.97-.34.89-.32,1.85.06,2.72.38.87,1.08,1.54,1.97,1.88.42.16.85.24,1.29.24.49,0,.97-.1,1.43-.3.87-.38,1.54-1.08,1.88-1.97.13-.34.19-.69.21-1.04h2.67Z"/></svg>
